 <svg  version="1.0" xmlns="http://www.w3.org/2000/svg"  width="299.000000pt" height="58.000000pt" viewBox="0 0 299.000000 58.000000"  preserveAspectRatio="xMidYMid meet">  <g transform="translate(0.000000,58.000000) scale(0.100000,-0.100000)" fill="#e57b7b" stroke="none"> <path d="M526 479 c-23 -33 -20 -39 19 -39 40 0 42 5 16 39 l-18 24 -17 -24z"/> <path d="M450 419 c-13 -6 -35 -7 -47 -4 -18 4 -23 1 -23 -15 0 -12 -9 -30 -20 -42 -16 -17 -27 -20 -62 -15 l-43 6 30 -25 c27 -21 30 -29 27 -71 -3 -55 7 -77 31 -67 19 7 21 22 6 44 -9 12 -10 11 -6 -7 4 -16 0 -23 -10 -23 -12 0 -14 11 -11 48 2 31 -2 55 -11 65 -12 15 -11 17 11 17 22 0 25 -4 22 -27 -3 -23 -2 -24 4 -6 16 50 102 112 155 113 10 0 15 5 12 10 -8 12 -32 12 -65 -1z"/> <path d="M585 420 c-3 -6 4 -10 17 -10 38 -1 111 -44 136 -80 12 -18 22 -46 22 -62 0 -27 2 -28 23 -17 12 7 27 19 34 28 10 13 8 17 -10 21 -13 4 -23 15 -25 28 -2 12 -8 22 -14 22 -16 0 -68 47 -60 55 4 5 2 5 -4 2 -7 -4 -28 0 -48 8 -41 17 -62 19 -71 5z m208 -126 c8 -8 -3 -34 -14 -34 -5 0 -9 9 -9 20 0 19 11 26 23 14z"/> <path d="M571 385 c-1 -5 -13 -23 -27 -40 l-25 -30 11 28 c6 18 6 26 0 22 -6 -3 -10 -11 -10 -17 0 -5 -9 -23 -21 -39 -25 -36 -11 -37 31 -3 39 33 47 25 28 -25 l-15 -39 33 -16 c41 -19 42 -28 8 -46 l-26 -14 21 -17 21 -17 -25 -19 -25 -18 71 -3 c46 -1 68 1 64 8 -4 6 -10 8 -15 5 -10 -6 -62 20 -54 27 3 4 21 2 40 -4 19 -5 43 -8 52 -5 13 3 9 8 -15 23 -18 10 -33 24 -33 30 0 5 17 20 38 32 20 12 30 22 22 23 -8 1 -25 3 -38 4 -36 4 -38 13 -7 45 16 16 27 31 24 33 -11 9 -90 -6 -86 -17 2 -6 11 -10 21 -8 14 2 14 -1 4 -24 -10 -22 -10 -27 5 -35 20 -12 23 -29 4 -29 -19 0 -67 56 -67 79 0 11 8 25 19 30 10 6 21 20 24 31 6 22 0 25 -23 10 -12 -7 -16 -3 -21 18 -4 15 -7 23 -8 17z m67 -212 c-2 -10 -11 -19 -21 -21 -16 -3 -17 -1 -7 17 13 25 33 28 28 4z"/> <path d="M419 229 c-43 -41 -44 -42 -21 -52 16 -7 26 -7 34 1 8 8 5 9 -13 6 -22 -5 -23 -4 -7 9 10 8 15 16 12 19 -3 3 7 15 22 27 15 12 25 24 22 26 -3 3 -25 -13 -49 -36z"/> <path d="M550 189 c0 -5 5 -7 10 -4 6 3 10 8 10 11 0 2 -4 4 -10 4 -5 0 -10 -5 -10 -11z"/> <path d="M327 157 c-29 -18 -35 -25 -25 -35 7 -7 19 -12 28 -12 9 0 20 -3 26 -7 5 -5 -1 1 -14 13 l-24 21 29 21 c37 28 27 28 -20 -1z"/> <path d="M406 151 c-4 -5 2 -7 13 -4 10 3 22 0 25 -6 4 -6 13 -11 19 -11 16 1 -23 30 -39 30 -7 0 -15 -4 -18 -9z"/> <path d="M370 130 c-13 -8 -12 -10 3 -10 9 0 17 5 17 10 0 12 -1 12 -20 0z"/> <path d="M395 104 c-18 -14 -18 -16 -4 -27 14 -11 39 -13 97 -8 14 1 15 3 2 11 -8 5 -32 7 -52 3 -25 -4 -38 -2 -38 6 0 11 15 14 55 12 20 -1 20 -1 0 8 -28 13 -37 12 -60 -5z"/> <path d="M500 106 c0 -2 7 -6 15 -10 8 -3 15 -1 15 4 0 6 -7 10 -15 10 -8 0 -15 -2 -15 -4z"/> </g> </svg> 